<?xml version="1.0" encoding="utf-8"?>
<!-- Generator: Adobe Illustrator 18.1.1, SVG Export Plug-In . SVG Version: 6.00 Build 0)  -->
<svg version="1.1" id="Layer_1" xmlns="http://www.w3.org/2000/svg" xmlns:xlink="http://www.w3.org/1999/xlink" x="0px" y="0px"
	 viewBox="0 1370.7 1440 139.9" enable-background="new 0 1370.7 1440 139.9" xml:space="preserve">
<rect x="-6.2" y="1370.7" fill="#EFF0F1" width="1451" height="139.9"/>
<path fill="#5E6A6C" d="M1.8,1487.1c0-4.8,0-9.2,0-13.9c0-1.5,0-1.5,1.5-1.5c3.7,0,7.3,0,11.4,0c1.1,0,1.5,0.4,1.5,1.1
	c0.7,5.1,1.8,9.9,2.9,15c0.4,2.2,0.4,2.6,2.6,3.3c3.3,1.5,6.6,2.2,9.9,2.6c6.6,1.1,12.8,0.7,19.4-1.5c4-1.5,7.7-3.3,10.6-6.6
	c3.7-4,4.8-8.4,3.7-13.6c-0.4-2.2-1.5-4.4-3.3-6.2c-2.6-2.6-5.5-4.4-8.4-6.2c-4-2.2-8.1-3.3-12.5-4.8c-6.6-2.2-13.2-5.1-19.4-8.1
	c-5.1-2.6-9.5-5.5-12.8-9.9c-3.7-4.4-5.5-9.5-5.9-15c-0.4-4.4-0.4-8.8,0.7-13.2c2.6-9.5,8.4-16.1,17.2-20.5
	c4.8-2.2,9.9-3.7,15.4-4.4c8.8-1.1,17.6,0,26.4,1.5c5.9,1.1,11.4,2.6,16.9,4.4c1.8,0.7,1.5,0.4,1.5,2.2c-0.4,8.8-0.4,17.9-0.7,26.7
	c0,1.1,0,1.5-1.5,1.5c-2.9,0-5.9,0-8.8,0c-1.5,0-1.5,0-1.8-1.5c-1.8-5.1-3.3-10.6-5.1-15.8c-0.4-1.1-1.1-1.8-2.2-2.2
	c-6.2-1.8-12.5-2.6-18.7-2.6c-5.9,0-11,1.5-15.8,5.1c-2.6,1.8-4.4,4.4-5.1,7.7c-1.1,5.5,0,10.6,4.4,14.7c3.3,2.9,7.3,5.1,11.4,7
	c5.5,2.2,10.6,4,16.1,5.9c5.1,1.8,9.9,3.7,14.7,6.6c3.7,2.2,6.6,4.8,9.5,7.7c3.3,3.7,5.1,8.1,5.9,12.8c0.7,5.9,0.4,12.1-1.5,17.6
	c-2.9,8.1-8.1,14.3-15.8,18.7c-5.5,3.3-11.7,5.1-18.3,6.2c-9.2,1.5-18.3,0.4-27.5-1.1c-5.9-1.1-11.4-2.6-16.9-4.8
	c-1.8,0-1.5,0-1.5-1.5C1.8,1496.2,1.8,1491.5,1.8,1487.1z"/>
<path fill="#5E6A6C" d="M416.1,1427.7c-1.5-0.4-3.3-1.1-4.8-1.5c-0.4,0-0.7-0.4-1.1-0.4c-1.5-0.4-1.5-0.4-1.5-2.2c0-2.2,0-4.4,0-7
	c0-0.7,0.4-1.5,1.1-1.1c0.4,0,0.4,0,0.7,0c7.3,0,15-0.4,22.3-0.4c4.4,0,8.4-0.4,12.8-0.4c1.5,0,1.5,0,1.5,1.5c0,2.6,0,5.1,0,7.7
	c0,1.5,0,1.5-1.5,1.8c-2.9,0.4-6.2,1.1-9.5,1.5c-1.1,0-1.8,0.7-2.6,1.8c-5.5,8.1-11,16.1-16.1,24.2c-0.7,0.7-0.7,1.5,0,2.2
	c7,12.5,14.3,24.5,21.2,37c0.4,0.7,1.1,1.1,1.8,1.5c3.7,1.1,7.3,2.6,11,3.7c1.1,0.4,1.5,0.7,1.1,1.8c0,2.2,0,4.8,0,7
	c0,1.5,0,1.5-1.1,1.5c-7,0-14.3,0-21.2,0c-1.1,0-1.5-0.7-1.8-1.5c-2.9-5.1-5.5-9.9-8.4-15c-5.1-8.8-9.9-17.9-15-26.7
	c-0.7-1.1-1.1-1.5-2.6-1.5c-4,0-8.1,0-12.1,0c-1.5,0-1.5,0-1.5,1.5c0,9.2,0,18.7,0,27.8c0,1.1,0.4,1.5,1.1,1.8
	c2.9,1.1,5.9,2.2,9.2,3.3c0.7,0.4,1.1,0.7,1.1,1.8c0,2.6,0,4.8,0,7.3c0,0.7-0.4,1.5-1.1,1.1c-0.4,0-0.7,0-1.1,0c-13.2,0-26,0-39.2,0
	c-0.4,0-0.4,0-0.7,0c-1.5,0-1.5,0-1.5-1.5c0-2.2,0-4.4,0-6.6c0-1.5,0-1.5,1.5-2.2c4-1.1,7.7-2.2,11.7-3.7c1.5-0.4,1.5-0.4,1.5-1.8
	c0-34.4,0-68.9,0-103.7c0-1.5,0-1.5-1.8-2.2c-4-1.1-8.1-1.8-12.1-2.9c-1.1-0.4-1.1-0.7-1.1-1.5c0-2.2,0-4.8,0-7c0-1.5,0-1.5,1.5-1.5
	c2.6,0,4.8,0,7.3-0.4c7.3,0,14.7-0.4,21.6-0.4c0.4,0,0.7,0,0.7,0c0.7,0,1.1,0.4,1.1,0.7s0,1.1,0,1.5c0,24.2,0,48,0,72.2
	c0,2.6-0.4,2.2,2.2,2.2c3.7,0,7.7,0,11.4,0c0.7,0,1.5,0,1.8-0.7c4-7,8.1-13.6,12.1-20.5C416.1,1428.5,416.1,1428.1,416.1,1427.7z"/>
<path fill="#38B9D8" d="M857.9,1508.7c-5.1,0-10.6-0.4-15.8-2.2c-12.1-3.7-20.1-11.4-24.5-23.1c-2.2-5.9-3.3-11.7-3.7-17.9
	c-0.4-4-0.4-7.7,0-11.7c0.4-6.6,1.8-12.8,4.4-19c5.1-11,13.6-17.9,25.6-20.9c6.2-1.5,12.5-1.8,18.7-1.5c5.1,0.4,10.3,1.1,15.4,2.9
	c9.9,4,16.9,11,20.9,20.5c2.6,5.9,3.7,11.7,4,17.9c0.4,4.4,0.4,9.2,0,13.6c-0.7,8.1-2.6,15.8-7,22.7c-5.5,8.8-13.6,14.3-23.4,16.9
	c-1.8,0.4-3.7,0.7-5.5,1.1C864.1,1508.7,861.2,1508.7,857.9,1508.7z M834.8,1460.7c0,1.8,0,3.3,0,5.1c0.4,4.4,1.1,8.4,2.6,12.5
	c2.6,6.6,7,11.4,13.9,13.2c3.7,1.1,7.7,1.1,11.7,0.7c7-1.1,12.5-4.8,15.8-11c2.2-4.4,2.9-8.8,3.7-13.6c0.4-5.1,0.4-10.3-0.4-15.8
	c-0.7-4-1.5-8.1-3.7-11.7c-2.9-5.1-7-8.4-12.5-9.9c-4.4-1.1-9.2-1.1-13.6,0c-5.1,1.1-9.2,4-12.1,8.8c-1.5,2.2-2.6,4.4-3.3,7
	C835.2,1450.4,834.8,1455.6,834.8,1460.7z"/>
<path fill="#38B9D8" d="M735.9,1460.7c0,7.3-0.7,14.7-3.3,21.6c-2.9,8.8-8.1,15.8-16.1,20.5c-4.4,2.6-9.2,4.4-13.9,5.1
	c-8.1,1.5-16.5,1.5-24.5-0.4c-15.8-3.7-25.3-13.6-29.3-28.9c-2.2-8.1-2.6-16.5-1.8-24.9c0.4-5.9,1.5-11.4,3.7-16.9
	c4.8-11.7,13.2-19.4,25.3-22.7c10.6-2.9,21.2-2.9,31.9,0.4c11.7,3.3,19.4,11,23.8,22.3C734.8,1444.6,735.9,1452.6,735.9,1460.7z
	 M715.1,1460.3c0-2.6,0-5.5-0.4-8.1c-0.7-4.8-1.5-9.2-4-13.2c-2.6-4.4-6.2-7.7-11-9.2s-9.2-1.5-13.9-0.7c-6.2,1.1-11,4.8-13.9,10.3
	c-2.2,4.4-3.3,8.8-3.7,13.9c-0.4,4.8-0.4,9.2,0,13.9c0.4,4.4,1.5,8.8,3.3,12.8c2.9,5.9,7.3,9.9,13.9,11.4c4.4,1.1,8.8,1.1,13.2,0
	c5.5-1.5,9.5-4.4,12.5-9.2c1.1-2.2,2.2-4,2.6-6.6C714.7,1470.6,715.1,1465.8,715.1,1460.3z"/>
<path fill="#38B9D8" d="M1345.5,1460.7c0,14.7,0,29.7,0,44.3c0,0.4,0,0.7,0,1.1c0,1.5,0,1.5-1.5,1.5c-5.5,0-11,0-16.5,0
	c-1.5,0-1.5,0-1.5-1.5c0-12.1,0-24.5,0-36.6c0-2.6,0.4-2.2-2.2-2.2c-11,0-21.6,0-32.6,0c-0.4,0-0.7,0-1.1,0c-0.7,0-1.1,0.4-1.1,1.1
	c0,0.4,0,1.1,0,1.5c0,11.7,0,23.8,0,35.5c0,0.4,0,0.7,0,1.1c0,1.5,0,1.5-1.5,1.5c-5.9,0-11.4,0-17.2,0c-1.5,0-1.5,0-1.5-1.5
	c0-3.3,0-6.6,0-9.9c0-26.7,0-53.1,0-79.9c0-2.2-0.4-2.2,2.2-2.2c5.1,0,10.3,0,15.8,0c1.8,0,1.8,0,1.8,1.8c0,11,0,21.6,0,32.6
	c0,2.6,0,2.2,2.2,2.2c11,0,21.6,0,32.6,0c0.4,0,0.7,0,1.1,0c0.7,0,1.1-0.4,0.7-1.1c0-0.4,0-1.1,0-1.5c0-10.6,0-21.2,0-31.9
	c0-0.4,0-0.7,0-1.1c0-1.5,0-1.5,1.5-1.5c5.5,0,11,0,16.5,0c1.8,0,1.8,0,1.8,1.8C1345.5,1430.7,1345.5,1445.7,1345.5,1460.7z"/>
<path fill="#38B9D8" d="M553.1,1460.7c0-15,0-29.7,0-44.7c0-2.2-0.4-2.2,2.2-2.2c5.5,0,10.6,0,16.1,0c1.8,0,1.8,0,1.8,1.8
	c0,11,0,21.6,0,32.6c0,2.6-0.4,2.2,2.6,2.2c10.6,0,21.6,0,32.2,0c0.4,0,0.4,0,0.7,0c1.8,0,1.8,0,1.8-1.8c0-11,0-22,0-33
	c0-2.2-0.4-2.2,2.2-2.2c5.1,0,10.3,0,15.4,0c0.4,0,0.7,0,1.1,0c0.7,0,0.7,0.4,0.7,0.7s0,0.7,0,1.1c0,29.7,0,59.7,0,89.4
	c0,2.2,0.4,2.2-2.2,2.2c-5.1,0-10.3,0-15.4,0c-0.4,0-1.1,0-1.5,0s-0.7-0.4-0.7-0.7s0-1.1,0-1.5c0-12.1,0-24.2,0-36.3
	c0-1.8,0-1.8-1.8-1.8c-11,0-22.3,0-33.3,0l0,0c-1.8,0-1.8,0-1.8,1.8c0,12.1,0,24.2,0,36.3c0,2.6,0.4,2.6-2.6,2.6c-5.1,0-10.3,0-15,0
	c-2.6,0-2.2,0.4-2.2-2.2C553.1,1490.4,553.1,1475.7,553.1,1460.7z"/>
<path fill="#38B9D8" d="M1089.1,1507.6c-0.4,0.4-1.1,0-1.5,0c-6.2,0-12.5,0-18.3,0c-1.1,0-1.8-0.4-2.6-1.5c-7-11-13.6-22-20.5-33
	c-0.7-1.1-1.5-1.5-2.6-1.5c-2.2,0-4.4,0-7,0c-2.2,0-2.2,0-2.2,2.2c0,10.6,0,20.9,0,31.5c0,2.6,0.4,2.2-2.2,2.2c-5.1,0-10.3,0-15.4,0
	c-0.4,0-1.1,0-1.5,0s-0.7-0.4-0.7-0.7s0-1.1,0-1.5c0-30,0-59.7,0-89.7c0-0.4,0-0.7,0-1.1c0-0.7,0.4-1.1,1.1-1.1c0.4,0,0.7,0,1.1,0
	c8.4,0,16.9,0,25.3,0c5.9,0,11.7,0.4,17.6,1.8c2.9,0.7,5.9,1.8,8.8,3.7c4.4,2.6,7.7,6.6,9.5,11.4c1.8,5.5,2.2,11.4,1.1,16.9
	c-1.5,7.3-5.9,12.5-12.1,16.5c-1.1,0.7-2.6,1.5-3.7,1.8c-0.7,0.4-0.7,0.7-0.4,1.1s0.7,1.1,1.1,1.5c8.4,12.5,16.9,24.9,25.3,37.4
	C1088.7,1506.9,1089.1,1506.9,1089.1,1507.6z M1034.5,1442.7c0,3.7,0,7.7,0,11.4c0,0.7,0,1.5,1.1,1.5c3.7,0,7.3,0,11-0.4
	c2.6-0.4,5.1-0.7,7.3-2.2c2.6-1.5,4.4-3.7,5.1-6.6c0.4-1.8,0.4-3.7,0.4-5.5c-0.4-4-2.2-7-5.9-8.4c-1.5-0.7-2.6-1.1-4-1.5
	c-4.8-1.1-9.2-0.7-13.9-0.7c-1.1,0-0.7,0.7-0.7,1.5C1034.5,1435.4,1034.5,1439.1,1034.5,1442.7z"/>
<path fill="#38B9D8" d="M992.4,1479.4c0,7.3,0,15,0,22.3c0,1.8,0,1.8-1.5,2.2c-7.3,2.2-14.7,3.7-22,4.4c-4.4,0.4-9.2,0.4-13.6,0.4
	c-7.3-0.4-14.3-2.2-20.5-5.9c-7-4.4-11.7-10.6-15-17.9c-2.2-5.1-3.3-10.3-3.7-15.8s-0.7-11,0-16.5c1.1-10.6,5.1-20.1,13.2-27.8
	c5.9-5.5,12.8-8.8,20.5-10.6c7.3-1.8,14.7-1.8,22.3-1.1c6.6,0.7,12.8,2.2,18.7,4.8c1.8,0.7,1.8,0.7,1.1,2.6
	c-1.8,4.4-3.7,8.4-5.5,12.8c-0.4,1.1-0.4,1.1-1.8,0.7c-4.8-2.2-9.5-3.7-14.7-4c-5.9-0.7-11.7-0.4-17.2,1.8
	c-7.7,3.3-12.5,9.2-15,16.9c-2.2,6.2-2.2,12.5-1.5,19c0.4,3.7,1.1,7,2.2,10.3c1.8,4.4,4.4,8.4,8.4,11.4c3.3,2.2,6.6,3.3,10.3,3.3
	c4.8,0.4,9.2,0,13.9-0.7c0.4,0,0.7-0.4,1.1-0.4c0.7,0,0.7-0.4,0.7-1.1c0-0.4,0-0.4,0-0.7c0-5.5,0-11,0-16.5c0-1.5,0-1.5-1.5-1.5
	c-4.8,0-9.5,0-14.3,0c-1.8,0-1.8,0-1.8-1.8c0-4.4,0-8.8,0-13.2c0-1.5,0-1.5,1.5-1.5c11.4,0,22.7,0,34.1,0c1.5,0,1.5,0,1.5,1.5
	C992.4,1464,992.4,1471.7,992.4,1479.4z"/>
<path fill="#38B9D8" d="M1182.5,1507.6c-1.1,0-2.2,0-2.9,0c-5.5,0-11,0-16.9,0c-1.5,0-1.5,0-2.2-1.5c-1.8-6.6-4-12.8-5.9-19.4
	c-0.4-1.5-0.4-1.5-2.2-1.5c-10.3,0-20.5,0-30.8,0c-1.5,0-1.5,0-2.2,1.5c-1.8,6.2-4,12.8-5.9,19c-0.4,1.8-0.4,1.8-2.2,1.8
	c-5.9,0-12.1,0-17.9,0c-0.4,0-1.1,0-1.5,0c-0.4-0.7,0-1.1,0.4-1.8c6.2-17.9,12.8-35.9,19-53.8c4-12.1,8.4-23.8,12.5-35.9
	c0-0.4,0.4-1.1,0.4-1.5c0.4-0.7,0.7-1.1,1.5-1.1c2.6,0,5.1,0,8.1,0c4.4,0,8.8,0,13.2,0c1.8,0,1.8,0,2.2,1.5
	c4,11.7,8.4,23.4,12.5,35.2c6.6,18.7,13.2,37.4,19.8,55.7C1182.1,1506.5,1182.1,1506.9,1182.5,1507.6z M1137.4,1428.8
	c-4,13.2-8.1,26.4-12.1,39.6c8.1,0,16.1,0,24.2,0C1145.5,1455.2,1141.1,1442,1137.4,1428.8z"/>
<path fill="#5E6A6C" d="M212.1,1509.4c-7,0-13.2-1.1-19-3.3c-9.9-4.4-16.5-11.7-19.8-22c-1.8-5.1-2.6-10.3-2.9-15.4
	c-0.4-6.6-0.4-12.8,1.1-19c1.8-9.2,5.9-17.6,12.5-24.2c7-7,15.4-10.6,25.3-11.7c6.6-0.7,12.8-0.4,19.4,1.5
	c11,3.3,18.3,10.6,23.1,20.9c2.2,5.5,3.7,11,4,16.9c0.4,5.9,0.4,11.4-0.4,17.2c-1.8,11-5.9,20.5-13.9,28.2
	c-6.2,5.9-13.6,9.5-22.3,10.6C216.1,1509.1,213.6,1509.1,212.1,1509.4z M188.3,1460.3c0,4,0,7,0.4,9.9c0.7,4.8,1.8,9.5,4,13.9
	c2.9,5.5,7.7,9.2,13.9,10.3c3.7,0.7,7,0.7,10.6,0.4c6.6-1.1,12.1-4.4,15-10.3c1.5-2.9,2.6-6.2,3.3-9.5c1.8-8.4,1.8-16.9,0.7-25.3
	c-0.7-4.4-1.8-8.4-3.7-12.1c-2.9-5.1-7-8.4-12.8-9.9c-4.8-1.1-9.5-1.1-14.3,0.4c-5.1,1.5-8.8,4.4-11.7,8.8c-1.8,2.6-2.9,5.5-3.7,8.4
	C188.7,1450.4,188.3,1455.9,188.3,1460.3z"/>
<path fill="#38B9D8" d="M1194.2,1460.7c0-15,0-29.7,0-44.7c0-2.2,0-2.2,2.2-2.2c9.5,0,18.7,0,28.2,0c5.5,0,11,0.7,16.5,2.6
	c5.1,1.8,9.5,4.4,12.8,8.8c3.3,4,4.8,8.8,5.1,13.9c0.4,4.8,0.4,9.9-1.1,14.7c-2.6,8.4-8.1,14.3-16.1,17.6
	c-5.1,2.2-10.6,2.9-16.1,3.3c-3.3,0-6.6,0-9.5,0c-1.5,0-1.5,0-1.5,1.5c0,9.9,0,19.8,0,29.7c0,2.2,0.4,2.2-2.2,2.2
	c-5.1,0-10.6,0-15.8,0c-1.8,0-1.8,0-1.8-1.8C1194.2,1490.7,1194.2,1475.7,1194.2,1460.7z M1214,1444.2c0,4,0,8.4,0,12.5
	c0,1.5,0,1.5,1.5,1.5c2.2,0,4.4,0,6.6,0c2.9,0,5.9-0.4,8.8-1.5c4-1.8,7-4.4,7.7-9.2c0.4-2.6,0.4-5.5,0-8.1c-1.1-4-3.3-6.6-7.3-8.1
	c-1.8-0.7-4-1.1-5.9-1.1c-3.3,0-6.6,0-9.5,0c-1.5,0-1.5,0-1.5,1.5C1214,1435.8,1214,1440.2,1214,1444.2z"/>
<path fill="#38B9D8" d="M476.2,1460.7c0-15,0-29.7,0-44.7c0-2.2-0.4-2.2,2.2-2.2c9.2,0,18.3,0,27.5,0c5.9,0,11.4,0.4,16.9,2.2
	c5.9,2.2,11,5.5,14.3,11c1.8,3.3,2.9,7,3.7,10.6c0.7,4.8,0.4,9.5-0.7,14.3c-2.2,9.2-7.7,15.4-16.5,19c-4,1.8-8.4,2.6-12.5,2.9
	c-4.4,0.4-8.8,0.4-12.8,0.4c-2.2,0-1.8,0-1.8,1.8c0,9.9,0,19.4,0,29.3c0,2.2,0.4,2.2-2.2,2.2c-5.5,0-10.6,0-16.1,0
	c-1.8,0-1.8,0-1.8-1.8C476.2,1490.7,476.2,1475.7,476.2,1460.7z M496,1444.2c0,4,0,8.4,0,12.5c0,1.5,0,1.5,1.5,1.5
	c2.2,0,4.4,0,6.6,0c2.6,0,5.5-0.4,8.1-1.5c4.4-1.5,7.7-4.8,8.4-9.5c0.4-2.6,0.4-5.1-0.4-7.7c-1.1-4-3.3-6.6-7.3-8.1
	c-1.8-0.7-3.7-1.1-5.5-1.1c-3.3,0-6.6,0-9.9,0c-1.5,0-1.5,0-1.5,1.5C496,1435.8,496,1440.2,496,1444.2z"/>
<path fill="#5E6A6C" d="M342.1,1484.9c0.4,0.7,1.1,1.8,1.5,2.6c1.1,2.2,2.6,4.4,3.7,6.2c0.7,1.1,0.7,1.1-0.4,2.2
	c-5.5,4.4-11.7,7.7-18.3,9.9c-4.4,1.5-9.2,2.9-13.9,2.9c-9.5,0.4-18.7-1.1-26.7-6.2c-7.7-5.1-12.8-12.5-15.8-20.9
	c-1.5-4.4-2.2-9.2-2.6-13.9c-0.7-11.4,0.4-22.3,5.9-32.2c6.6-12.5,17.2-19.4,30.8-22c6.6-1.1,13.2-0.7,19.8,0.4
	c5.9,1.1,11.7,2.6,17.2,5.1c1.5,0.7,1.5,0.7,1.5,2.2c0,4.8-0.4,9.2-0.4,13.9c0,2.2-0.4,4.8-0.4,7c0,0.7-0.4,1.1-1.1,1.1
	c-2.9,0-6.2,0-9.2,0c-0.7,0-1.1-0.4-1.5-1.1c-0.4-2.9-1.1-5.5-1.5-8.4c-0.4-1.5-0.4-2.9-0.7-4c0-0.7-0.4-1.1-1.1-1.5
	c-7.3-1.5-14.3-2.2-21.6-0.7c-8.1,1.5-13.6,6.6-16.5,14.3c-1.8,4.4-2.6,8.8-2.6,13.6c-0.4,7,0,13.9,1.8,20.9
	c1.8,5.5,4.4,10.3,8.8,13.9c3.7,2.9,7.7,4.4,12.1,5.1c8.8,1.1,16.9-1.1,24.5-5.1c1.8-1.1,3.7-2.6,5.1-4
	C341,1485.6,341.4,1485.2,342.1,1484.9z"/>
<path fill="#38B9D8" d="M1357.6,1414.2c0.7-0.4,1.1-0.4,1.8-0.4c5.9,0,11.7,0,17.6,0c1.5,0,1.8,0.4,2.6,1.5
	c5.9,11.7,11.7,23.1,17.6,34.8c0.4,0.7,0.4,1.5,1.1,1.8c0.7-0.4,0.7-1.1,1.1-1.5c5.9-11.7,11.7-23.4,17.6-34.8
	c0.7-1.1,1.1-1.8,2.6-1.8c5.9,0,11.7,0,17.6,0c0.4,0,1.1,0,1.5,0c0.4,0.7,0,1.1-0.4,1.5c-4.4,8.4-9.2,16.9-13.6,25.3
	c-5.1,9.9-10.6,19.4-16.1,29.3c-0.4,0.7-0.7,1.8-0.7,2.6c0,10.6,0,21.6,0,32.2c0,0.4,0,0.7,0,1.1c0,1.5,0,1.5-1.5,1.5
	c-5.5,0-11,0-16.9,0c-1.5,0-1.5,0-1.5-1.5c0-11,0-21.6,0-32.6c0-1.1-0.4-2.2-0.7-3.3c-9.5-17.9-19.4-35.9-28.9-53.8
	C1357.9,1415.6,1357.6,1414.9,1357.6,1414.2z"/>
<path fill="#5E6A6C" d="M115,1459.2c0-9.5,0-18.7,0-28.2c0-1.8,0.4-1.8-1.8-1.8c-4.8,0-9.5,0-14.3,0c-1.5,0-1.5,0-1.5-1.5
	c0-2.9,0-5.9,0-8.8c0-0.7,0.4-1.1,1.1-1.1c4.8-0.4,9.9-1.1,14.7-1.5c0.4,0,0.7,0,1.1,0s0.7-0.4,0.7-0.7s0-0.7,0-1.1
	c0-6.2,0-12.5,0-18.3c0-1.5,0-1.5,1.5-1.8c4.8-1.1,9.5-1.8,14.3-2.9c1.8-0.4,1.8-0.7,1.8,1.5c0,7,0,13.9,0,20.9c0,0.4,0,0.7,0,1.1
	c0,1.5,0,1.5,1.5,1.5c7.3,0,14.3,0,21.6,0c0.4,0,1.1,0,1.5,0c0.7,0,1.1,0.4,1.1,1.1c0,3.7,0,7.3,0,11.4c0,0.7-0.4,1.1-1.1,1.1
	c-0.4,0-0.7,0-1.1,0c-7,0-13.9,0-21.2,0c-0.4,0-0.7,0-1.1,0c-0.7,0-0.7,0.4-0.7,0.7s0,0.7,0,1.1c0,17.6,0,35.5,0,53.1
	c0,1.1,0,2.6,0,3.7c0.7,5.5,4,8.1,9.9,7.7c3.3-0.4,6.2-1.5,9.5-2.9c0.7-0.4,1.5-0.7,1.8-1.1c0.7-0.4,1.1-0.4,1.5,0.7
	c1.1,2.6,2.6,4.8,3.7,7.3c0.4,0.7,0.4,1.1-0.4,1.8c-7,4.8-14.3,7.7-22.7,8.1c-4.8,0-9.2-0.7-12.8-3.7c-4.4-2.9-6.2-7.3-7.3-12.5
	c-0.7-2.9-0.7-5.9-0.7-9.2C115,1475.7,115,1467.3,115,1459.2z"/>
<path fill="#38B9D8" d="M786.1,1469.1c0,12.1,0,24.2,0,36.3c0,0.4,0,0.7,0,1.1c0,1.5,0,1.5-1.5,1.5c-5.9,0-11.4,0-17.2,0
	c-1.1,0-1.1,0-1.5-1.1c0-0.4,0-0.7,0-1.1c0-23.8,0-48,0-71.8c0-0.4,0-0.7,0-1.1c0-1.5,0-1.5-1.5-1.5c-7.3,0-14.3,0-21.6,0
	c-2.2,0-2.2,0-2.2-2.2c0-4.4,0-8.4,0-12.8c0-1.5,0-1.5,1.5-1.5c6.2,0,12.5,0,18.7,0c16.1,0,32.2,0,48.4,0c2.2,0,2.2,0,2.2,2.2
	c0,4.4,0,8.4,0,12.8c0,1.5,0,1.5-1.8,1.5c-7.3,0-14.3,0-21.6,0c-0.4,0-0.7,0-1.1,0c-0.7,0-1.1,0.4-1.1,1.1c0,0.4,0,1.1,0,1.5
	C786.1,1444.9,786.1,1457,786.1,1469.1z"/>
<path fill="#F1F2F3" d="M834.8,1460.7c0-5.1,0.4-10.3,1.8-15c0.7-2.6,1.8-4.8,3.3-7c2.9-4.4,7-7.3,12.1-8.8c4.4-1.1,9.2-1.1,13.6,0
	c5.5,1.5,9.9,4.8,12.5,9.9c1.8,3.7,2.9,7.7,3.7,11.7c0.7,5.1,0.7,10.3,0.4,15.8c-0.4,4.8-1.5,9.5-3.7,13.6
	c-3.3,6.6-8.4,10.3-15.8,11c-4,0.7-7.7,0.4-11.7-0.7c-7-1.8-11.4-6.6-13.9-13.2c-1.5-4-2.2-8.1-2.6-12.5
	C834.8,1464,834.8,1462.2,834.8,1460.7z"/>
<path fill="#F1F2F3" d="M715.1,1460.3c0,5.1-0.4,10.3-1.8,15c-0.7,2.2-1.5,4.4-2.6,6.6c-2.9,4.8-7,8.1-12.5,9.2
	c-4.4,1.1-8.8,1.1-13.2,0c-6.6-1.5-11-5.1-13.9-11.4c-1.8-4-2.9-8.4-3.3-12.8c-0.4-4.8-0.4-9.2,0-13.9c0.4-4.8,1.5-9.5,3.7-13.9
	c2.9-5.5,7.7-9.2,13.9-10.3c4.8-1.1,9.5-0.7,13.9,0.7c4.8,1.5,8.4,4.8,11,9.2c2.2,4,3.3,8.4,4,13.2
	C715.1,1455.2,715.1,1457.8,715.1,1460.3z"/>
<path fill="#F1F2F3" d="M1034.5,1442.7c0-3.7,0-7.3,0-11.4c0-0.7,0-1.5,0.7-1.5c4.8,0,9.5-0.4,13.9,0.7c1.5,0.4,2.6,0.7,4,1.5
	c3.7,1.8,5.5,4.8,5.9,8.4c0,1.8,0,3.7-0.4,5.5c-0.7,2.9-2.6,5.1-5.1,6.6c-2.2,1.1-4.8,1.8-7.3,2.2c-3.7,0.4-7.3,0.4-11,0.4
	c-1.1,0-1.1-0.4-1.1-1.5C1034.5,1450.4,1034.5,1446.8,1034.5,1442.7z"/>
<path fill="#F1F2F3" d="M1137.4,1428.8c4,13.2,8.4,26.4,12.1,39.6c-8.1,0-16.1,0-24.2,0C1129.4,1455.2,1133.4,1442,1137.4,1428.8z"
	/>
<path fill="#F1F2F3" d="M188.3,1460.3c0-4.4,0.4-9.9,1.8-15.4c0.7-2.9,1.8-5.9,3.7-8.4c2.9-4.4,6.6-7.3,11.7-8.8
	c4.8-1.5,9.5-1.5,14.3-0.4c5.9,1.1,9.9,4.8,12.8,9.9c2.2,3.7,3.3,8.1,3.7,12.1c1.1,8.4,1.1,16.9-0.7,25.3c-0.7,3.3-1.8,6.6-3.3,9.5
	c-3.3,6.2-8.4,9.5-15,10.3c-3.7,0.4-7,0.4-10.6-0.4c-6.2-1.1-11-4.8-13.9-10.3c-2.6-4.4-3.7-9.2-4-13.9
	C188.3,1467.3,188.3,1464.4,188.3,1460.3z"/>
<path fill="#F1F2F3" d="M1214,1444.2c0-4,0-8.4,0-12.5c0-1.5,0-1.5,1.5-1.5c3.3,0,6.6,0,9.5,0c1.8,0,4,0.4,5.9,1.1
	c4,1.5,6.2,4,7.3,8.1c0.7,2.6,0.7,5.5,0,8.1c-0.7,4.4-3.7,7.3-7.7,9.2c-2.9,1.1-5.9,1.5-8.8,1.5c-2.2,0-4.4,0-6.6,0
	c-1.5,0-1.5,0-1.5-1.5C1214,1452.6,1214,1448.2,1214,1444.2z"/>
<path fill="#F1F2F3" d="M496,1444.2c0-4,0-8.4,0-12.5c0-1.5,0-1.5,1.5-1.5c3.3,0,6.6,0,9.9,0c1.8,0,3.7,0.4,5.5,1.1
	c4,1.5,6.2,4,7.3,8.1c0.7,2.6,0.7,5.1,0.4,7.7c-1.1,4.8-4,7.7-8.4,9.5c-2.6,0.7-5.1,1.1-8.1,1.5c-2.2,0-4.4,0-6.6,0
	c-1.5,0-1.5,0-1.5-1.5C496,1452.6,496,1448.2,496,1444.2z"/>
</svg>
